<svg width="41" height="41" viewBox="0 0 41 41" fill="none" xmlns="http://www.w3.org/2000/svg">
<path d="M28.4379 18.1452L19.7002 9.40751C19.2973 8.99031 19.0743 8.43153 19.0794 7.85154C19.0844 7.27154 19.317 6.71673 19.7272 6.30659C20.1373 5.89645 20.6921 5.66381 21.2721 5.65877C21.8521 5.65373 22.4109 5.8767 22.8281 6.27964L35.3418 18.7933C35.5479 18.9983 35.7115 19.242 35.8231 19.5104C35.9347 19.7788 35.9922 20.0666 35.9922 20.3573C35.9922 20.6479 35.9347 20.9358 35.8231 21.2041C35.7115 21.4725 35.5479 21.7162 35.3418 21.9212L22.8281 34.4349C22.409 34.8278 21.8535 35.0424 21.279 35.033C20.7046 35.0237 20.1563 34.7913 19.7502 34.3849C19.3441 33.9785 19.1121 33.4301 19.1032 32.8556C19.0942 32.2812 19.3092 31.7258 19.7024 31.307L28.4401 22.5693L7.23521 22.5693C6.64854 22.5693 6.08589 22.3363 5.67105 21.9214C5.2562 21.5066 5.02314 20.9439 5.02314 20.3572C5.02314 19.7706 5.2562 19.2079 5.67105 18.7931C6.08589 18.3782 6.64854 18.1452 7.23521 18.1452L28.4379 18.1452Z" fill="#C9F001"/>
</svg>
