<svg width="41" height="41" viewBox="0 0 41 41" fill="none" xmlns="http://www.w3.org/2000/svg">
<path d="M12.5621 18.1452L21.2998 9.40751C21.7027 8.99031 21.9257 8.43153 21.9207 7.85154C21.9156 7.27154 21.683 6.71673 21.2728 6.30659C20.8627 5.89645 20.3079 5.66381 19.7279 5.65877C19.1479 5.65373 18.5891 5.8767 18.1719 6.27964L5.65824 18.7933C5.45211 18.9983 5.28853 19.242 5.17691 19.5104C5.06528 19.7788 5.00782 20.0666 5.00782 20.3573C5.00782 20.6479 5.06528 20.9358 5.17691 21.2041C5.28853 21.4725 5.45211 21.7162 5.65824 21.9212L18.1719 34.4349C18.591 34.8278 19.1465 35.0424 19.721 35.033C20.2954 35.0237 20.8437 34.7913 21.2498 34.3849C21.6559 33.9785 21.8879 33.4301 21.8968 32.8556C21.9058 32.2812 21.6909 31.7258 21.2976 31.307L12.5599 22.5693L33.7648 22.5693C34.3515 22.5693 34.9141 22.3363 35.329 21.9214C35.7438 21.5066 35.9769 20.9439 35.9769 20.3572C35.9769 19.7706 35.7438 19.2079 35.329 18.7931C34.9141 18.3782 34.3515 18.1452 33.7648 18.1452L12.5621 18.1452Z" fill="#C9F001"/>
</svg>
